<svg width="247" height="24" viewBox="0 0 247 24" fill="none" xmlns="http://www.w3.org/2000/svg">
<path d="M6.33 0.559999V23H0.482V0.559999H6.33ZM30.8562 0.559999V23H24.3622L17.3922 10.862L15.6922 7.53H15.6582L15.7942 11.678V23H10.6262V0.559999H17.1202L24.0902 12.698L25.7902 16.03H25.8242L25.6882 11.882V0.559999H30.8562ZM52.5894 5.082H40.9954V9.842H50.2434V14.364H40.9954V23H35.1474V0.559999H52.5894V5.082ZM61.1337 0.559999V23H55.2857V0.559999H61.1337ZM85.66 0.559999V23H79.166L72.196 10.862L70.496 7.53H70.462L70.598 11.678V23H65.43V0.559999H71.924L78.894 12.698L80.594 16.03H80.628L80.492 11.882V0.559999H85.66ZM95.7991 0.559999V23H89.9511V0.559999H95.7991ZM118.965 0.559999V5.082H111.655V23H105.807V5.082H98.4634V0.559999H118.965ZM121.628 23V0.559999H139.104V5.082H127.476V9.638H136.724V13.888H127.476V18.478H139.546V23H121.628ZM157.294 0.559999V23H151.446V0.559999H157.294ZM171.11 0.559999C174.624 0.559999 177.31 1.53467 179.168 3.484C181.05 5.43333 181.99 8.19867 181.99 11.78C181.99 15.3613 181.05 18.1267 179.168 20.076C177.31 22.0253 174.624 23 171.11 23H161.59V0.559999H171.11ZM170.532 18.58C172.436 18.58 173.819 18.0133 174.68 16.88C175.564 15.724 176.006 14.024 176.006 11.78C176.006 9.536 175.564 7.84733 174.68 6.714C173.819 5.558 172.436 4.98 170.532 4.98H167.438V18.58H170.532ZM185.315 23V0.559999H202.791V5.082H191.163V9.638H200.411V13.888H191.163V18.478H203.233V23H185.315ZM203.738 23L211.626 0.559999H218.63L226.484 23H220.466L218.936 17.934H211.184L209.62 23H203.738ZM214.108 8.55L212.408 13.956H217.712L216.08 8.584L215.094 5.048H215.026L214.108 8.55ZM237.086 0.219999C239.171 0.219999 241.007 0.548666 242.594 1.206C244.203 1.84067 245.597 2.78133 246.776 4.028L243.954 7.802C242.979 6.782 241.925 6.02267 240.792 5.524C239.681 5.00267 238.412 4.742 236.984 4.742C235.737 4.742 234.842 4.946 234.298 5.354C233.754 5.762 233.482 6.26067 233.482 6.85C233.482 7.326 233.697 7.734 234.128 8.074C234.581 8.39133 235.307 8.66333 236.304 8.89L240.078 9.74C242.322 10.2613 243.965 11.0207 245.008 12.018C246.051 13.0153 246.572 14.3413 246.572 15.996C246.572 17.5827 246.164 18.9313 245.348 20.042C244.532 21.13 243.41 21.9573 241.982 22.524C240.554 23.068 238.922 23.34 237.086 23.34C234.819 23.34 232.745 22.9773 230.864 22.252C228.983 21.504 227.487 20.5293 226.376 19.328L229.198 15.418C230.037 16.3927 231.17 17.2087 232.598 17.866C234.026 18.5007 235.499 18.818 237.018 18.818C239.375 18.818 240.554 18.1267 240.554 16.744C240.554 16.268 240.373 15.8713 240.01 15.554C239.67 15.214 239.035 14.9307 238.106 14.704L233.958 13.786C232.689 13.514 231.555 13.1287 230.558 12.63C229.583 12.1313 228.813 11.474 228.246 10.658C227.679 9.81933 227.396 8.77667 227.396 7.53C227.396 6.12467 227.781 4.878 228.552 3.79C229.323 2.67933 230.433 1.80667 231.884 1.172C233.335 0.537333 235.069 0.219999 237.086 0.219999Z" fill="#F9F9F9"/>
<path d="M6.33 0.559999V23H0.482V0.559999H6.33ZM30.8562 0.559999V23H24.3622L17.3922 10.862L15.6922 7.53H15.6582L15.7942 11.678V23H10.6262V0.559999H17.1202L24.0902 12.698L25.7902 16.03H25.8242L25.6882 11.882V0.559999H30.8562ZM52.5894 5.082H40.9954V9.842H50.2434V14.364H40.9954V23H35.1474V0.559999H52.5894V5.082ZM61.1337 0.559999V23H55.2857V0.559999H61.1337ZM85.66 0.559999V23H79.166L72.196 10.862L70.496 7.53H70.462L70.598 11.678V23H65.43V0.559999H71.924L78.894 12.698L80.594 16.03H80.628L80.492 11.882V0.559999H85.66ZM95.7991 0.559999V23H89.9511V0.559999H95.7991ZM118.965 0.559999V5.082H111.655V23H105.807V5.082H98.4634V0.559999H118.965ZM121.628 23V0.559999H139.104V5.082H127.476V9.638H136.724V13.888H127.476V18.478H139.546V23H121.628ZM157.294 0.559999V23H151.446V0.559999H157.294ZM171.11 0.559999C174.624 0.559999 177.31 1.53467 179.168 3.484C181.05 5.43333 181.99 8.19867 181.99 11.78C181.99 15.3613 181.05 18.1267 179.168 20.076C177.31 22.0253 174.624 23 171.11 23H161.59V0.559999H171.11ZM170.532 18.58C172.436 18.58 173.819 18.0133 174.68 16.88C175.564 15.724 176.006 14.024 176.006 11.78C176.006 9.536 175.564 7.84733 174.68 6.714C173.819 5.558 172.436 4.98 170.532 4.98H167.438V18.58H170.532ZM185.315 23V0.559999H202.791V5.082H191.163V9.638H200.411V13.888H191.163V18.478H203.233V23H185.315ZM203.738 23L211.626 0.559999H218.63L226.484 23H220.466L218.936 17.934H211.184L209.62 23H203.738ZM214.108 8.55L212.408 13.956H217.712L216.08 8.584L215.094 5.048H215.026L214.108 8.55ZM237.086 0.219999C239.171 0.219999 241.007 0.548666 242.594 1.206C244.203 1.84067 245.597 2.78133 246.776 4.028L243.954 7.802C242.979 6.782 241.925 6.02267 240.792 5.524C239.681 5.00267 238.412 4.742 236.984 4.742C235.737 4.742 234.842 4.946 234.298 5.354C233.754 5.762 233.482 6.26067 233.482 6.85C233.482 7.326 233.697 7.734 234.128 8.074C234.581 8.39133 235.307 8.66333 236.304 8.89L240.078 9.74C242.322 10.2613 243.965 11.0207 245.008 12.018C246.051 13.0153 246.572 14.3413 246.572 15.996C246.572 17.5827 246.164 18.9313 245.348 20.042C244.532 21.13 243.41 21.9573 241.982 22.524C240.554 23.068 238.922 23.34 237.086 23.34C234.819 23.34 232.745 22.9773 230.864 22.252C228.983 21.504 227.487 20.5293 226.376 19.328L229.198 15.418C230.037 16.3927 231.17 17.2087 232.598 17.866C234.026 18.5007 235.499 18.818 237.018 18.818C239.375 18.818 240.554 18.1267 240.554 16.744C240.554 16.268 240.373 15.8713 240.01 15.554C239.67 15.214 239.035 14.9307 238.106 14.704L233.958 13.786C232.689 13.514 231.555 13.1287 230.558 12.63C229.583 12.1313 228.813 11.474 228.246 10.658C227.679 9.81933 227.396 8.77667 227.396 7.53C227.396 6.12467 227.781 4.878 228.552 3.79C229.323 2.67933 230.433 1.80667 231.884 1.172C233.335 0.537333 235.069 0.219999 237.086 0.219999Z" fill="#F9F9F9"/>
<path d="M6.33 0.559999H7.33V-0.440001H6.33V0.559999ZM6.33 23V24H7.33V23H6.33ZM0.482 23H-0.518V24H0.482V23ZM0.482 0.559999V-0.440001H-0.518V0.559999H0.482ZM5.33 0.559999V23H7.33V0.559999H5.33ZM6.33 22H0.482V24H6.33V22ZM1.482 23V0.559999H-0.518V23H1.482ZM0.482 1.56H6.33V-0.440001H0.482V1.56ZM30.8562 0.559999H31.8562V-0.440001H30.8562V0.559999ZM30.8562 23V24H31.8562V23H30.8562ZM24.3622 23L23.495 23.498L23.7833 24H24.3622V23ZM17.3922 10.862L16.5015 11.3165L16.5127 11.3385L16.525 11.36L17.3922 10.862ZM15.6922 7.53L16.583 7.07553L16.3046 6.53H15.6922V7.53ZM15.6582 7.53V6.53H14.6249L14.6588 7.56277L15.6582 7.53ZM15.7942 11.678H16.7942V11.6616L16.7937 11.6452L15.7942 11.678ZM15.7942 23V24H16.7942V23H15.7942ZM10.6262 23H9.62622V24H10.6262V23ZM10.6262 0.559999V-0.440001H9.62622V0.559999H10.6262ZM17.1202 0.559999L17.9874 0.0620301L17.6991 -0.440001H17.1202V0.559999ZM24.0902 12.698L24.981 12.2435L24.9697 12.2215L24.9574 12.2L24.0902 12.698ZM25.7902 16.03L24.8995 16.4845L25.1778 17.03H25.7902V16.03ZM25.8242 16.03V17.03H26.8575L26.8237 15.9972L25.8242 16.03ZM25.6882 11.882H24.6882V11.8984L24.6888 11.9148L25.6882 11.882ZM25.6882 0.559999V-0.440001H24.6882V0.559999H25.6882ZM29.8562 0.559999V23H31.8562V0.559999H29.8562ZM30.8562 22H24.3622V24H30.8562V22ZM25.2294 22.502L18.2594 10.364L16.525 11.36L23.495 23.498L25.2294 22.502ZM18.283 10.4075L16.583 7.07553L14.8015 7.98447L16.5015 11.3165L18.283 10.4075ZM15.6922 6.53H15.6582V8.53H15.6922V6.53ZM14.6588 7.56277L14.7948 11.7108L16.7937 11.6452L16.6577 7.49723L14.6588 7.56277ZM14.7942 11.678V23H16.7942V11.678H14.7942ZM15.7942 22H10.6262V24H15.7942V22ZM11.6262 23V0.559999H9.62622V23H11.6262ZM10.6262 1.56H17.1202V-0.440001H10.6262V1.56ZM16.253 1.05797L23.223 13.196L24.9574 12.2L17.9874 0.0620301L16.253 1.05797ZM23.1995 13.1525L24.8995 16.4845L26.681 15.5755L24.981 12.2435L23.1995 13.1525ZM25.7902 17.03H25.8242V15.03H25.7902V17.03ZM26.8237 15.9972L26.6877 11.8492L24.6888 11.9148L24.8248 16.0628L26.8237 15.9972ZM26.6882 11.882V0.559999H24.6882V11.882H26.6882ZM25.6882 1.56H30.8562V-0.440001H25.6882V1.56ZM52.5894 5.082V6.082H53.5894V5.082H52.5894ZM40.9954 5.082V4.082H39.9954V5.082H40.9954ZM40.9954 9.842H39.9954V10.842H40.9954V9.842ZM50.2434 9.842H51.2434V8.842H50.2434V9.842ZM50.2434 14.364V15.364H51.2434V14.364H50.2434ZM40.9954 14.364V13.364H39.9954V14.364H40.9954ZM40.9954 23V24H41.9954V23H40.9954ZM35.1474 23H34.1474V24H35.1474V23ZM35.1474 0.559999V-0.440001H34.1474V0.559999H35.1474ZM52.5894 0.559999H53.5894V-0.440001H52.5894V0.559999ZM52.5894 4.082H40.9954V6.082H52.5894V4.082ZM39.9954 5.082V9.842H41.9954V5.082H39.9954ZM40.9954 10.842H50.2434V8.842H40.9954V10.842ZM49.2434 9.842V14.364H51.2434V9.842H49.2434ZM50.2434 13.364H40.9954V15.364H50.2434V13.364ZM39.9954 14.364V23H41.9954V14.364H39.9954ZM40.9954 22H35.1474V24H40.9954V22ZM36.1474 23V0.559999H34.1474V23H36.1474ZM35.1474 1.56H52.5894V-0.440001H35.1474V1.56ZM51.5894 0.559999V5.082H53.5894V0.559999H51.5894ZM61.1337 0.559999H62.1337V-0.440001H61.1337V0.559999ZM61.1337 23V24H62.1337V23H61.1337ZM55.2857 23H54.2857V24H55.2857V23ZM55.2857 0.559999V-0.440001H54.2857V0.559999H55.2857ZM60.1337 0.559999V23H62.1337V0.559999H60.1337ZM61.1337 22H55.2857V24H61.1337V22ZM56.2857 23V0.559999H54.2857V23H56.2857ZM55.2857 1.56H61.1337V-0.440001H55.2857V1.56ZM85.66 0.559999H86.66V-0.440001H85.66V0.559999ZM85.66 23V24H86.66V23H85.66ZM79.166 23L78.2988 23.498L78.5871 24H79.166V23ZM72.196 10.862L71.3052 11.3165L71.3165 11.3385L71.3288 11.36L72.196 10.862ZM70.496 7.53L71.3867 7.07553L71.1084 6.53H70.496V7.53ZM70.462 7.53V6.53H69.4286L69.4625 7.56277L70.462 7.53ZM70.598 11.678H71.598V11.6616L71.5974 11.6452L70.598 11.678ZM70.598 23V24H71.598V23H70.598ZM65.43 23H64.43V24H65.43V23ZM65.43 0.559999V-0.440001H64.43V0.559999H65.43ZM71.924 0.559999L72.7912 0.0620301L72.5029 -0.440001H71.924V0.559999ZM78.894 12.698L79.7847 12.2435L79.7735 12.2215L79.7612 12.2L78.894 12.698ZM80.594 16.03L79.7032 16.4845L79.9815 17.03H80.594V16.03ZM80.628 16.03V17.03H81.6613L81.6274 15.9972L80.628 16.03ZM80.492 11.882H79.492V11.8984L79.4925 11.9148L80.492 11.882ZM80.492 0.559999V-0.440001H79.492V0.559999H80.492ZM84.66 0.559999V23H86.66V0.559999H84.66ZM85.66 22H79.166V24H85.66V22ZM80.0332 22.502L73.0632 10.364L71.3288 11.36L78.2988 23.498L80.0332 22.502ZM73.0867 10.4075L71.3867 7.07553L69.6052 7.98447L71.3052 11.3165L73.0867 10.4075ZM70.496 6.53H70.462V8.53H70.496V6.53ZM69.4625 7.56277L69.5985 11.7108L71.5974 11.6452L71.4614 7.49723L69.4625 7.56277ZM69.598 11.678V23H71.598V11.678H69.598ZM70.598 22H65.43V24H70.598V22ZM66.43 23V0.559999H64.43V23H66.43ZM65.43 1.56H71.924V-0.440001H65.43V1.56ZM71.0568 1.05797L78.0268 13.196L79.7612 12.2L72.7912 0.0620301L71.0568 1.05797ZM78.0032 13.1525L79.7032 16.4845L81.4847 15.5755L79.7847 12.2435L78.0032 13.1525ZM80.594 17.03H80.628V15.03H80.594V17.03ZM81.6274 15.9972L81.4914 11.8492L79.4925 11.9148L79.6285 16.0628L81.6274 15.9972ZM81.492 11.882V0.559999H79.492V11.882H81.492ZM80.492 1.56H85.66V-0.440001H80.492V1.56ZM95.7991 0.559999H96.7991V-0.440001H95.7991V0.559999ZM95.7991 23V24H96.7991V23H95.7991ZM89.9511 23H88.9511V24H89.9511V23ZM89.9511 0.559999V-0.440001H88.9511V0.559999H89.9511ZM94.7991 0.559999V23H96.7991V0.559999H94.7991ZM95.7991 22H89.9511V24H95.7991V22ZM90.9511 23V0.559999H88.9511V23H90.9511ZM89.9511 1.56H95.7991V-0.440001H89.9511V1.56ZM118.965 0.559999H119.965V-0.440001H118.965V0.559999ZM118.965 5.082V6.082H119.965V5.082H118.965ZM111.655 5.082V4.082H110.655V5.082H111.655ZM111.655 23V24H112.655V23H111.655ZM105.807 23H104.807V24H105.807V23ZM105.807 5.082H106.807V4.082H105.807V5.082ZM98.4634 5.082H97.4634V6.082H98.4634V5.082ZM98.4634 0.559999V-0.440001H97.4634V0.559999H98.4634ZM117.965 0.559999V5.082H119.965V0.559999H117.965ZM118.965 4.082H111.655V6.082H118.965V4.082ZM110.655 5.082V23H112.655V5.082H110.655ZM111.655 22H105.807V24H111.655V22ZM106.807 23V5.082H104.807V23H106.807ZM105.807 4.082H98.4634V6.082H105.807V4.082ZM99.4634 5.082V0.559999H97.4634V5.082H99.4634ZM98.4634 1.56H118.965V-0.440001H98.4634V1.56ZM121.628 23H120.628V24H121.628V23ZM121.628 0.559999V-0.440001H120.628V0.559999H121.628ZM139.104 0.559999H140.104V-0.440001H139.104V0.559999ZM139.104 5.082V6.082H140.104V5.082H139.104ZM127.476 5.082V4.082H126.476V5.082H127.476ZM127.476 9.638H126.476V10.638H127.476V9.638ZM136.724 9.638H137.724V8.638H136.724V9.638ZM136.724 13.888V14.888H137.724V13.888H136.724ZM127.476 13.888V12.888H126.476V13.888H127.476ZM127.476 18.478H126.476V19.478H127.476V18.478ZM139.546 18.478H140.546V17.478H139.546V18.478ZM139.546 23V24H140.546V23H139.546ZM122.628 23V0.559999H120.628V23H122.628ZM121.628 1.56H139.104V-0.440001H121.628V1.56ZM138.104 0.559999V5.082H140.104V0.559999H138.104ZM139.104 4.082H127.476V6.082H139.104V4.082ZM126.476 5.082V9.638H128.476V5.082H126.476ZM127.476 10.638H136.724V8.638H127.476V10.638ZM135.724 9.638V13.888H137.724V9.638H135.724ZM136.724 12.888H127.476V14.888H136.724V12.888ZM126.476 13.888V18.478H128.476V13.888H126.476ZM127.476 19.478H139.546V17.478H127.476V19.478ZM138.546 18.478V23H140.546V18.478H138.546ZM139.546 22H121.628V24H139.546V22ZM157.294 0.559999H158.294V-0.440001H157.294V0.559999ZM157.294 23V24H158.294V23H157.294ZM151.446 23H150.446V24H151.446V23ZM151.446 0.559999V-0.440001H150.446V0.559999H151.446ZM156.294 0.559999V23H158.294V0.559999H156.294ZM157.294 22H151.446V24H157.294V22ZM152.446 23V0.559999H150.446V23H152.446ZM151.446 1.56H157.294V-0.440001H151.446V1.56ZM179.168 3.484L178.444 4.17409L178.449 4.17845L179.168 3.484ZM179.168 20.076L178.449 19.3815L178.444 19.3859L179.168 20.076ZM161.59 23H160.59V24H161.59V23ZM161.59 0.559999V-0.440001H160.59V0.559999H161.59ZM174.68 16.88L173.886 16.2725L173.884 16.2749L174.68 16.88ZM174.68 6.714L173.878 7.31148L173.885 7.32033L173.892 7.32903L174.68 6.714ZM167.438 4.98V3.98H166.438V4.98H167.438ZM167.438 18.58H166.438V19.58H167.438V18.58ZM171.11 1.56C174.437 1.56 176.827 2.47804 178.444 4.17408L179.892 2.79392C177.792 0.591292 174.81 -0.440001 171.11 -0.440001V1.56ZM178.449 4.17845C180.098 5.88752 180.99 8.37177 180.99 11.78H182.99C182.99 8.02556 182.001 4.97914 179.888 2.78955L178.449 4.17845ZM180.99 11.78C180.99 15.1882 180.098 17.6725 178.449 19.3816L179.888 20.7704C182.001 18.5809 182.99 15.5344 182.99 11.78H180.99ZM178.444 19.3859C176.827 21.082 174.437 22 171.11 22V24C174.81 24 177.792 22.9687 179.892 20.7661L178.444 19.3859ZM171.11 22H161.59V24H171.11V22ZM162.59 23V0.559999H160.59V23H162.59ZM161.59 1.56H171.11V-0.440001H161.59V1.56ZM170.532 19.58C172.635 19.58 174.366 18.9458 175.476 17.4851L173.884 16.2749C173.272 17.0809 172.238 17.58 170.532 17.58V19.58ZM175.475 17.4874C176.547 16.0851 177.006 14.1314 177.006 11.78H175.006C175.006 13.9166 174.581 15.3629 173.886 16.2725L175.475 17.4874ZM177.006 11.78C177.006 9.43069 176.548 7.48242 175.469 6.09897L173.892 7.32903C174.581 8.21225 175.006 9.64131 175.006 11.78H177.006ZM175.482 6.11652C174.375 4.63015 172.642 3.98 170.532 3.98V5.98C172.231 5.98 173.263 6.48585 173.878 7.31148L175.482 6.11652ZM170.532 3.98H167.438V5.98H170.532V3.98ZM166.438 4.98V18.58H168.438V4.98H166.438ZM167.438 19.58H170.532V17.58H167.438V19.58ZM185.315 23H184.315V24H185.315V23ZM185.315 0.559999V-0.440001H184.315V0.559999H185.315ZM202.791 0.559999H203.791V-0.440001H202.791V0.559999ZM202.791 5.082V6.082H203.791V5.082H202.791ZM191.163 5.082V4.082H190.163V5.082H191.163ZM191.163 9.638H190.163V10.638H191.163V9.638ZM200.411 9.638H201.411V8.638H200.411V9.638ZM200.411 13.888V14.888H201.411V13.888H200.411ZM191.163 13.888V12.888H190.163V13.888H191.163ZM191.163 18.478H190.163V19.478H191.163V18.478ZM203.233 18.478H204.233V17.478H203.233V18.478ZM203.233 23V24H204.233V23H203.233ZM186.315 23V0.559999H184.315V23H186.315ZM185.315 1.56H202.791V-0.440001H185.315V1.56ZM201.791 0.559999V5.082H203.791V0.559999H201.791ZM202.791 4.082H191.163V6.082H202.791V4.082ZM190.163 5.082V9.638H192.163V5.082H190.163ZM191.163 10.638H200.411V8.638H191.163V10.638ZM199.411 9.638V13.888H201.411V9.638H199.411ZM200.411 12.888H191.163V14.888H200.411V12.888ZM190.163 13.888V18.478H192.163V13.888H190.163ZM191.163 19.478H203.233V17.478H191.163V19.478ZM202.233 18.478V23H204.233V18.478H202.233ZM203.233 22H185.315V24H203.233V22ZM203.738 23L202.794 22.6684L202.326 24H203.738V23ZM211.626 0.559999V-0.440001H210.917L210.682 0.228376L211.626 0.559999ZM218.63 0.559999L219.574 0.229649L219.339 -0.440001H218.63V0.559999ZM226.484 23V24H227.893L227.428 22.6696L226.484 23ZM220.466 23L219.508 23.2891L219.723 24H220.466V23ZM218.936 17.934L219.893 17.6449L219.678 16.934H218.936V17.934ZM211.184 17.934V16.934H210.446L210.228 17.639L211.184 17.934ZM209.62 23V24H210.358L210.575 23.295L209.62 23ZM214.108 8.55L215.062 8.84998L215.069 8.82694L215.075 8.80357L214.108 8.55ZM212.408 13.956L211.454 13.656L211.045 14.956H212.408V13.956ZM217.712 13.956V14.956H219.061L218.669 13.6653L217.712 13.956ZM216.08 8.584L215.116 8.8526L215.12 8.86368L215.123 8.87468L216.08 8.584ZM215.094 5.048L216.057 4.7794L215.853 4.048H215.094V5.048ZM215.026 5.048V4.048H214.254L214.058 4.79443L215.026 5.048ZM204.681 23.3316L212.569 0.891623L210.682 0.228376L202.794 22.6684L204.681 23.3316ZM211.626 1.56H218.63V-0.440001H211.626V1.56ZM217.686 0.89035L225.54 23.3304L227.428 22.6696L219.574 0.229649L217.686 0.89035ZM226.484 22H220.466V24H226.484V22ZM221.423 22.7109L219.893 17.6449L217.978 18.2231L219.508 23.2891L221.423 22.7109ZM218.936 16.934H211.184V18.934H218.936V16.934ZM210.228 17.639L208.664 22.705L210.575 23.295L212.139 18.229L210.228 17.639ZM209.62 22H203.738V24H209.62V22ZM213.154 8.25002L211.454 13.656L213.362 14.256L215.062 8.84998L213.154 8.25002ZM212.408 14.956H217.712V12.956H212.408V14.956ZM218.669 13.6653L217.037 8.29332L215.123 8.87468L216.755 14.2467L218.669 13.6653ZM217.043 8.3154L216.057 4.7794L214.13 5.3166L215.116 8.8526L217.043 8.3154ZM215.094 4.048H215.026V6.048H215.094V4.048ZM214.058 4.79443L213.14 8.29643L215.075 8.80357L215.993 5.30157L214.058 4.79443ZM242.594 1.206L242.211 2.12985L242.219 2.13313L242.227 2.13627L242.594 1.206ZM246.776 4.028L247.577 4.62684L248.081 3.95268L247.503 3.34099L246.776 4.028ZM243.954 7.802L243.231 8.49286L244.047 9.34711L244.755 8.40084L243.954 7.802ZM240.792 5.524L240.367 6.42924L240.378 6.43441L240.389 6.43932L240.792 5.524ZM234.298 5.354L233.698 4.554L233.698 4.554L234.298 5.354ZM234.128 8.074L233.508 8.85888L233.531 8.87672L233.554 8.89323L234.128 8.074ZM236.304 8.89L236.082 9.86513L236.084 9.86556L236.304 8.89ZM240.078 9.74L240.304 8.76592L240.298 8.76444L240.078 9.74ZM245.348 20.042L246.148 20.642L246.154 20.6341L245.348 20.042ZM241.982 22.524L242.338 23.4586L242.351 23.4535L241.982 22.524ZM230.864 22.252L230.494 23.1813L230.504 23.1851L230.864 22.252ZM226.376 19.328L225.565 18.7428L225.086 19.4061L225.642 20.0069L226.376 19.328ZM229.198 15.418L229.956 14.7658L229.129 13.8047L228.387 14.8328L229.198 15.418ZM232.598 17.866L232.18 18.7745L232.192 18.7798L232.598 17.866ZM240.01 15.554L239.303 16.2611L239.326 16.2847L239.351 16.3066L240.01 15.554ZM238.106 14.704L238.343 13.7325L238.332 13.7299L238.322 13.7276L238.106 14.704ZM233.958 13.786L234.174 12.8096L234.167 12.8082L233.958 13.786ZM230.558 12.63L230.102 13.5203L230.111 13.5244L230.558 12.63ZM228.246 10.658L227.417 11.2179L227.425 11.2284L228.246 10.658ZM228.552 3.79L229.368 4.36804L229.373 4.36008L228.552 3.79ZM231.884 1.172L231.483 0.255842L231.483 0.255842L231.884 1.172ZM237.086 1.22C239.067 1.22 240.769 1.53232 242.211 2.12985L242.977 0.282143C241.246 -0.434988 239.275 -0.780001 237.086 -0.780001V1.22ZM242.227 2.13627C243.701 2.71765 244.972 3.57572 246.049 4.71501L247.503 3.34099C246.222 1.98694 244.705 0.96368 242.961 0.275726L242.227 2.13627ZM245.975 3.42915L243.153 7.20315L244.755 8.40084L247.577 4.62684L245.975 3.42915ZM244.677 7.11114C243.624 6.00916 242.464 5.16725 241.195 4.60868L240.389 6.43932C241.386 6.87809 242.335 7.55484 243.231 8.49286L244.677 7.11114ZM241.217 4.61876C239.953 4.02559 238.535 3.742 236.984 3.742V5.742C238.289 5.742 239.409 5.97974 240.367 6.42924L241.217 4.61876ZM236.984 3.742C235.678 3.742 234.509 3.94597 233.698 4.554L234.898 6.154C235.175 5.94603 235.796 5.742 236.984 5.742V3.742ZM233.698 4.554C232.946 5.11779 232.482 5.8946 232.482 6.85H234.482C234.482 6.62673 234.562 6.40621 234.898 6.154L233.698 4.554ZM232.482 6.85C232.482 7.68115 232.879 8.36191 233.508 8.85888L234.748 7.28912C234.516 7.10609 234.482 6.97085 234.482 6.85H232.482ZM233.554 8.89323C234.169 9.32349 235.047 9.62994 236.082 9.86513L236.526 7.91487C235.566 7.69673 234.993 7.45918 234.701 7.25477L233.554 8.89323ZM236.084 9.86556L239.858 10.7156L240.298 8.76444L236.524 7.91444L236.084 9.86556ZM239.852 10.7141C242.015 11.2167 243.459 11.9205 244.317 12.7406L245.699 11.2954C244.471 10.1209 242.629 9.30595 240.304 8.76594L239.852 10.7141ZM244.317 12.7406C245.133 13.5211 245.572 14.5705 245.572 15.996H247.572C247.572 14.1122 246.969 12.5096 245.699 11.2954L244.317 12.7406ZM245.572 15.996C245.572 17.4031 245.213 18.5361 244.542 19.4499L246.154 20.6341C247.114 19.3266 247.572 17.7622 247.572 15.996H245.572ZM244.548 19.442C243.856 20.3641 242.892 21.0868 241.613 21.5945L242.351 23.4535C243.927 22.8279 245.207 21.8959 246.148 20.642L244.548 19.442ZM241.626 21.5895C240.332 22.0824 238.824 22.34 237.086 22.34V24.34C239.02 24.34 240.776 24.0536 242.338 23.4585L241.626 21.5895ZM237.086 22.34C234.927 22.34 232.977 21.9949 231.224 21.3189L230.504 23.1851C232.514 23.9598 234.711 24.34 237.086 24.34V22.34ZM231.233 21.3228C229.459 20.6171 228.098 19.7179 227.11 18.6491L225.642 20.0069C226.875 21.3407 228.507 22.3909 230.494 23.1812L231.233 21.3228ZM227.187 19.9132L230.009 16.0032L228.387 14.8328L225.565 18.7428L227.187 19.9132ZM228.44 16.0702C229.391 17.1751 230.65 18.0701 232.18 18.7744L233.016 16.9576C231.69 16.3472 230.683 15.6102 229.956 14.7658L228.44 16.0702ZM232.192 18.7798C233.744 19.4696 235.355 19.818 237.018 19.818V17.818C235.643 17.818 234.308 17.5317 233.004 16.9522L232.192 18.7798ZM237.018 19.818C238.262 19.818 239.359 19.6414 240.176 19.1621C241.076 18.6343 241.554 17.7849 241.554 16.744H239.554C239.554 17.0857 239.443 17.2734 239.164 17.4369C238.803 17.6489 238.132 17.818 237.018 17.818V19.818ZM241.554 16.744C241.554 15.9756 241.245 15.3059 240.668 14.8014L239.351 16.3066C239.5 16.4367 239.554 16.5604 239.554 16.744H241.554ZM240.717 14.8469C240.172 14.3019 239.305 13.9673 238.343 13.7325L237.869 15.6755C238.765 15.8941 239.168 16.1261 239.303 16.2611L240.717 14.8469ZM238.322 13.7276L234.174 12.8096L233.742 14.7624L237.89 15.6804L238.322 13.7276ZM234.167 12.8082C232.967 12.551 231.916 12.191 231.005 11.7356L230.111 13.5244C231.195 14.0664 232.41 14.477 233.748 14.7638L234.167 12.8082ZM231.013 11.7398C230.17 11.3082 229.531 10.7551 229.067 10.0876L227.425 11.2284C228.094 12.1929 228.997 12.9545 230.102 13.5202L231.013 11.7398ZM229.074 10.0981C228.643 9.45962 228.396 8.62372 228.396 7.53H226.396C226.396 8.92961 226.715 10.1791 227.417 11.2179L229.074 10.0981ZM228.396 7.53C228.396 6.31987 228.724 5.27761 229.368 4.36802L227.736 3.21198C226.839 4.47839 226.396 5.92946 226.396 7.53H228.396ZM229.373 4.36008C230.022 3.42591 230.974 2.66152 232.285 2.08816L231.483 0.255842C229.892 0.951809 228.623 1.93275 227.73 3.21992L229.373 4.36008ZM232.285 2.08816C233.579 1.52172 235.17 1.22 237.086 1.22V-0.780001C234.967 -0.780001 233.09 -0.447051 231.483 0.255842L232.285 2.08816Z" fill="black" fill-opacity="0.2"/>
<path d="M6.33 0.559999H7.33V-0.440001H6.33V0.559999ZM6.33 23V24H7.33V23H6.33ZM0.482 23H-0.518V24H0.482V23ZM0.482 0.559999V-0.440001H-0.518V0.559999H0.482ZM5.33 0.559999V23H7.33V0.559999H5.33ZM6.33 22H0.482V24H6.33V22ZM1.482 23V0.559999H-0.518V23H1.482ZM0.482 1.56H6.33V-0.440001H0.482V1.56ZM30.8562 0.559999H31.8562V-0.440001H30.8562V0.559999ZM30.8562 23V24H31.8562V23H30.8562ZM24.3622 23L23.495 23.498L23.7833 24H24.3622V23ZM17.3922 10.862L16.5015 11.3165L16.5127 11.3385L16.525 11.36L17.3922 10.862ZM15.6922 7.53L16.583 7.07553L16.3046 6.53H15.6922V7.53ZM15.6582 7.53V6.53H14.6249L14.6588 7.56277L15.6582 7.53ZM15.7942 11.678H16.7942V11.6616L16.7937 11.6452L15.7942 11.678ZM15.7942 23V24H16.7942V23H15.7942ZM10.6262 23H9.62622V24H10.6262V23ZM10.6262 0.559999V-0.440001H9.62622V0.559999H10.6262ZM17.1202 0.559999L17.9874 0.0620301L17.6991 -0.440001H17.1202V0.559999ZM24.0902 12.698L24.981 12.2435L24.9697 12.2215L24.9574 12.2L24.0902 12.698ZM25.7902 16.03L24.8995 16.4845L25.1778 17.03H25.7902V16.03ZM25.8242 16.03V17.03H26.8575L26.8237 15.9972L25.8242 16.03ZM25.6882 11.882H24.6882V11.8984L24.6888 11.9148L25.6882 11.882ZM25.6882 0.559999V-0.440001H24.6882V0.559999H25.6882ZM29.8562 0.559999V23H31.8562V0.559999H29.8562ZM30.8562 22H24.3622V24H30.8562V22ZM25.2294 22.502L18.2594 10.364L16.525 11.36L23.495 23.498L25.2294 22.502ZM18.283 10.4075L16.583 7.07553L14.8015 7.98447L16.5015 11.3165L18.283 10.4075ZM15.6922 6.53H15.6582V8.53H15.6922V6.53ZM14.6588 7.56277L14.7948 11.7108L16.7937 11.6452L16.6577 7.49723L14.6588 7.56277ZM14.7942 11.678V23H16.7942V11.678H14.7942ZM15.7942 22H10.6262V24H15.7942V22ZM11.6262 23V0.559999H9.62622V23H11.6262ZM10.6262 1.56H17.1202V-0.440001H10.6262V1.56ZM16.253 1.05797L23.223 13.196L24.9574 12.2L17.9874 0.0620301L16.253 1.05797ZM23.1995 13.1525L24.8995 16.4845L26.681 15.5755L24.981 12.2435L23.1995 13.1525ZM25.7902 17.03H25.8242V15.03H25.7902V17.03ZM26.8237 15.9972L26.6877 11.8492L24.6888 11.9148L24.8248 16.0628L26.8237 15.9972ZM26.6882 11.882V0.559999H24.6882V11.882H26.6882ZM25.6882 1.56H30.8562V-0.440001H25.6882V1.56ZM52.5894 5.082V6.082H53.5894V5.082H52.5894ZM40.9954 5.082V4.082H39.9954V5.082H40.9954ZM40.9954 9.842H39.9954V10.842H40.9954V9.842ZM50.2434 9.842H51.2434V8.842H50.2434V9.842ZM50.2434 14.364V15.364H51.2434V14.364H50.2434ZM40.9954 14.364V13.364H39.9954V14.364H40.9954ZM40.9954 23V24H41.9954V23H40.9954ZM35.1474 23H34.1474V24H35.1474V23ZM35.1474 0.559999V-0.440001H34.1474V0.559999H35.1474ZM52.5894 0.559999H53.5894V-0.440001H52.5894V0.559999ZM52.5894 4.082H40.9954V6.082H52.5894V4.082ZM39.9954 5.082V9.842H41.9954V5.082H39.9954ZM40.9954 10.842H50.2434V8.842H40.9954V10.842ZM49.2434 9.842V14.364H51.2434V9.842H49.2434ZM50.2434 13.364H40.9954V15.364H50.2434V13.364ZM39.9954 14.364V23H41.9954V14.364H39.9954ZM40.9954 22H35.1474V24H40.9954V22ZM36.1474 23V0.559999H34.1474V23H36.1474ZM35.1474 1.56H52.5894V-0.440001H35.1474V1.56ZM51.5894 0.559999V5.082H53.5894V0.559999H51.5894ZM61.1337 0.559999H62.1337V-0.440001H61.1337V0.559999ZM61.1337 23V24H62.1337V23H61.1337ZM55.2857 23H54.2857V24H55.2857V23ZM55.2857 0.559999V-0.440001H54.2857V0.559999H55.2857ZM60.1337 0.559999V23H62.1337V0.559999H60.1337ZM61.1337 22H55.2857V24H61.1337V22ZM56.2857 23V0.559999H54.2857V23H56.2857ZM55.2857 1.56H61.1337V-0.440001H55.2857V1.56ZM85.66 0.559999H86.66V-0.440001H85.66V0.559999ZM85.66 23V24H86.66V23H85.66ZM79.166 23L78.2988 23.498L78.5871 24H79.166V23ZM72.196 10.862L71.3052 11.3165L71.3165 11.3385L71.3288 11.36L72.196 10.862ZM70.496 7.53L71.3867 7.07553L71.1084 6.53H70.496V7.53ZM70.462 7.53V6.53H69.4286L69.4625 7.56277L70.462 7.53ZM70.598 11.678H71.598V11.6616L71.5974 11.6452L70.598 11.678ZM70.598 23V24H71.598V23H70.598ZM65.43 23H64.43V24H65.43V23ZM65.43 0.559999V-0.440001H64.43V0.559999H65.43ZM71.924 0.559999L72.7912 0.0620301L72.5029 -0.440001H71.924V0.559999ZM78.894 12.698L79.7847 12.2435L79.7735 12.2215L79.7612 12.2L78.894 12.698ZM80.594 16.03L79.7032 16.4845L79.9815 17.03H80.594V16.03ZM80.628 16.03V17.03H81.6613L81.6274 15.9972L80.628 16.03ZM80.492 11.882H79.492V11.8984L79.4925 11.9148L80.492 11.882ZM80.492 0.559999V-0.440001H79.492V0.559999H80.492ZM84.66 0.559999V23H86.66V0.559999H84.66ZM85.66 22H79.166V24H85.66V22ZM80.0332 22.502L73.0632 10.364L71.3288 11.36L78.2988 23.498L80.0332 22.502ZM73.0867 10.4075L71.3867 7.07553L69.6052 7.98447L71.3052 11.3165L73.0867 10.4075ZM70.496 6.53H70.462V8.53H70.496V6.53ZM69.4625 7.56277L69.5985 11.7108L71.5974 11.6452L71.4614 7.49723L69.4625 7.56277ZM69.598 11.678V23H71.598V11.678H69.598ZM70.598 22H65.43V24H70.598V22ZM66.43 23V0.559999H64.43V23H66.43ZM65.43 1.56H71.924V-0.440001H65.43V1.56ZM71.0568 1.05797L78.0268 13.196L79.7612 12.2L72.7912 0.0620301L71.0568 1.05797ZM78.0032 13.1525L79.7032 16.4845L81.4847 15.5755L79.7847 12.2435L78.0032 13.1525ZM80.594 17.03H80.628V15.03H80.594V17.03ZM81.6274 15.9972L81.4914 11.8492L79.4925 11.9148L79.6285 16.0628L81.6274 15.9972ZM81.492 11.882V0.559999H79.492V11.882H81.492ZM80.492 1.56H85.66V-0.440001H80.492V1.56ZM95.7991 0.559999H96.7991V-0.440001H95.7991V0.559999ZM95.7991 23V24H96.7991V23H95.7991ZM89.9511 23H88.9511V24H89.9511V23ZM89.9511 0.559999V-0.440001H88.9511V0.559999H89.9511ZM94.7991 0.559999V23H96.7991V0.559999H94.7991ZM95.7991 22H89.9511V24H95.7991V22ZM90.9511 23V0.559999H88.9511V23H90.9511ZM89.9511 1.56H95.7991V-0.440001H89.9511V1.56ZM118.965 0.559999H119.965V-0.440001H118.965V0.559999ZM118.965 5.082V6.082H119.965V5.082H118.965ZM111.655 5.082V4.082H110.655V5.082H111.655ZM111.655 23V24H112.655V23H111.655ZM105.807 23H104.807V24H105.807V23ZM105.807 5.082H106.807V4.082H105.807V5.082ZM98.4634 5.082H97.4634V6.082H98.4634V5.082ZM98.4634 0.559999V-0.440001H97.4634V0.559999H98.4634ZM117.965 0.559999V5.082H119.965V0.559999H117.965ZM118.965 4.082H111.655V6.082H118.965V4.082ZM110.655 5.082V23H112.655V5.082H110.655ZM111.655 22H105.807V24H111.655V22ZM106.807 23V5.082H104.807V23H106.807ZM105.807 4.082H98.4634V6.082H105.807V4.082ZM99.4634 5.082V0.559999H97.4634V5.082H99.4634ZM98.4634 1.56H118.965V-0.440001H98.4634V1.56ZM121.628 23H120.628V24H121.628V23ZM121.628 0.559999V-0.440001H120.628V0.559999H121.628ZM139.104 0.559999H140.104V-0.440001H139.104V0.559999ZM139.104 5.082V6.082H140.104V5.082H139.104ZM127.476 5.082V4.082H126.476V5.082H127.476ZM127.476 9.638H126.476V10.638H127.476V9.638ZM136.724 9.638H137.724V8.638H136.724V9.638ZM136.724 13.888V14.888H137.724V13.888H136.724ZM127.476 13.888V12.888H126.476V13.888H127.476ZM127.476 18.478H126.476V19.478H127.476V18.478ZM139.546 18.478H140.546V17.478H139.546V18.478ZM139.546 23V24H140.546V23H139.546ZM122.628 23V0.559999H120.628V23H122.628ZM121.628 1.56H139.104V-0.440001H121.628V1.56ZM138.104 0.559999V5.082H140.104V0.559999H138.104ZM139.104 4.082H127.476V6.082H139.104V4.082ZM126.476 5.082V9.638H128.476V5.082H126.476ZM127.476 10.638H136.724V8.638H127.476V10.638ZM135.724 9.638V13.888H137.724V9.638H135.724ZM136.724 12.888H127.476V14.888H136.724V12.888ZM126.476 13.888V18.478H128.476V13.888H126.476ZM127.476 19.478H139.546V17.478H127.476V19.478ZM138.546 18.478V23H140.546V18.478H138.546ZM139.546 22H121.628V24H139.546V22ZM157.294 0.559999H158.294V-0.440001H157.294V0.559999ZM157.294 23V24H158.294V23H157.294ZM151.446 23H150.446V24H151.446V23ZM151.446 0.559999V-0.440001H150.446V0.559999H151.446ZM156.294 0.559999V23H158.294V0.559999H156.294ZM157.294 22H151.446V24H157.294V22ZM152.446 23V0.559999H150.446V23H152.446ZM151.446 1.56H157.294V-0.440001H151.446V1.56ZM179.168 3.484L178.444 4.17409L178.449 4.17845L179.168 3.484ZM179.168 20.076L178.449 19.3815L178.444 19.3859L179.168 20.076ZM161.59 23H160.59V24H161.59V23ZM161.59 0.559999V-0.440001H160.59V0.559999H161.59ZM174.68 16.88L173.886 16.2725L173.884 16.2749L174.68 16.88ZM174.68 6.714L173.878 7.31148L173.885 7.32033L173.892 7.32903L174.68 6.714ZM167.438 4.98V3.98H166.438V4.98H167.438ZM167.438 18.58H166.438V19.58H167.438V18.58ZM171.11 1.56C174.437 1.56 176.827 2.47804 178.444 4.17408L179.892 2.79392C177.792 0.591292 174.81 -0.440001 171.11 -0.440001V1.56ZM178.449 4.17845C180.098 5.88752 180.99 8.37177 180.99 11.78H182.99C182.99 8.02556 182.001 4.97914 179.888 2.78955L178.449 4.17845ZM180.99 11.78C180.99 15.1882 180.098 17.6725 178.449 19.3816L179.888 20.7704C182.001 18.5809 182.99 15.5344 182.99 11.78H180.99ZM178.444 19.3859C176.827 21.082 174.437 22 171.11 22V24C174.81 24 177.792 22.9687 179.892 20.7661L178.444 19.3859ZM171.11 22H161.59V24H171.11V22ZM162.59 23V0.559999H160.59V23H162.59ZM161.59 1.56H171.11V-0.440001H161.59V1.56ZM170.532 19.58C172.635 19.58 174.366 18.9458 175.476 17.4851L173.884 16.2749C173.272 17.0809 172.238 17.58 170.532 17.58V19.58ZM175.475 17.4874C176.547 16.0851 177.006 14.1314 177.006 11.78H175.006C175.006 13.9166 174.581 15.3629 173.886 16.2725L175.475 17.4874ZM177.006 11.78C177.006 9.43069 176.548 7.48242 175.469 6.09897L173.892 7.32903C174.581 8.21225 175.006 9.64131 175.006 11.78H177.006ZM175.482 6.11652C174.375 4.63015 172.642 3.98 170.532 3.98V5.98C172.231 5.98 173.263 6.48585 173.878 7.31148L175.482 6.11652ZM170.532 3.98H167.438V5.98H170.532V3.98ZM166.438 4.98V18.58H168.438V4.98H166.438ZM167.438 19.58H170.532V17.58H167.438V19.58ZM185.315 23H184.315V24H185.315V23ZM185.315 0.559999V-0.440001H184.315V0.559999H185.315ZM202.791 0.559999H203.791V-0.440001H202.791V0.559999ZM202.791 5.082V6.082H203.791V5.082H202.791ZM191.163 5.082V4.082H190.163V5.082H191.163ZM191.163 9.638H190.163V10.638H191.163V9.638ZM200.411 9.638H201.411V8.638H200.411V9.638ZM200.411 13.888V14.888H201.411V13.888H200.411ZM191.163 13.888V12.888H190.163V13.888H191.163ZM191.163 18.478H190.163V19.478H191.163V18.478ZM203.233 18.478H204.233V17.478H203.233V18.478ZM203.233 23V24H204.233V23H203.233ZM186.315 23V0.559999H184.315V23H186.315ZM185.315 1.56H202.791V-0.440001H185.315V1.56ZM201.791 0.559999V5.082H203.791V0.559999H201.791ZM202.791 4.082H191.163V6.082H202.791V4.082ZM190.163 5.082V9.638H192.163V5.082H190.163ZM191.163 10.638H200.411V8.638H191.163V10.638ZM199.411 9.638V13.888H201.411V9.638H199.411ZM200.411 12.888H191.163V14.888H200.411V12.888ZM190.163 13.888V18.478H192.163V13.888H190.163ZM191.163 19.478H203.233V17.478H191.163V19.478ZM202.233 18.478V23H204.233V18.478H202.233ZM203.233 22H185.315V24H203.233V22ZM203.738 23L202.794 22.6684L202.326 24H203.738V23ZM211.626 0.559999V-0.440001H210.917L210.682 0.228376L211.626 0.559999ZM218.63 0.559999L219.574 0.229649L219.339 -0.440001H218.63V0.559999ZM226.484 23V24H227.893L227.428 22.6696L226.484 23ZM220.466 23L219.508 23.2891L219.723 24H220.466V23ZM218.936 17.934L219.893 17.6449L219.678 16.934H218.936V17.934ZM211.184 17.934V16.934H210.446L210.228 17.639L211.184 17.934ZM209.62 23V24H210.358L210.575 23.295L209.62 23ZM214.108 8.55L215.062 8.84998L215.069 8.82694L215.075 8.80357L214.108 8.55ZM212.408 13.956L211.454 13.656L211.045 14.956H212.408V13.956ZM217.712 13.956V14.956H219.061L218.669 13.6653L217.712 13.956ZM216.08 8.584L215.116 8.8526L215.12 8.86368L215.123 8.87468L216.08 8.584ZM215.094 5.048L216.057 4.7794L215.853 4.048H215.094V5.048ZM215.026 5.048V4.048H214.254L214.058 4.79443L215.026 5.048ZM204.681 23.3316L212.569 0.891623L210.682 0.228376L202.794 22.6684L204.681 23.3316ZM211.626 1.56H218.63V-0.440001H211.626V1.56ZM217.686 0.89035L225.54 23.3304L227.428 22.6696L219.574 0.229649L217.686 0.89035ZM226.484 22H220.466V24H226.484V22ZM221.423 22.7109L219.893 17.6449L217.978 18.2231L219.508 23.2891L221.423 22.7109ZM218.936 16.934H211.184V18.934H218.936V16.934ZM210.228 17.639L208.664 22.705L210.575 23.295L212.139 18.229L210.228 17.639ZM209.62 22H203.738V24H209.62V22ZM213.154 8.25002L211.454 13.656L213.362 14.256L215.062 8.84998L213.154 8.25002ZM212.408 14.956H217.712V12.956H212.408V14.956ZM218.669 13.6653L217.037 8.29332L215.123 8.87468L216.755 14.2467L218.669 13.6653ZM217.043 8.3154L216.057 4.7794L214.13 5.3166L215.116 8.8526L217.043 8.3154ZM215.094 4.048H215.026V6.048H215.094V4.048ZM214.058 4.79443L213.14 8.29643L215.075 8.80357L215.993 5.30157L214.058 4.79443ZM242.594 1.206L242.211 2.12985L242.219 2.13313L242.227 2.13627L242.594 1.206ZM246.776 4.028L247.577 4.62684L248.081 3.95268L247.503 3.34099L246.776 4.028ZM243.954 7.802L243.231 8.49286L244.047 9.34711L244.755 8.40084L243.954 7.802ZM240.792 5.524L240.367 6.42924L240.378 6.43441L240.389 6.43932L240.792 5.524ZM234.298 5.354L233.698 4.554L233.698 4.554L234.298 5.354ZM234.128 8.074L233.508 8.85888L233.531 8.87672L233.554 8.89323L234.128 8.074ZM236.304 8.89L236.082 9.86513L236.084 9.86556L236.304 8.89ZM240.078 9.74L240.304 8.76592L240.298 8.76444L240.078 9.74ZM245.348 20.042L246.148 20.642L246.154 20.6341L245.348 20.042ZM241.982 22.524L242.338 23.4586L242.351 23.4535L241.982 22.524ZM230.864 22.252L230.494 23.1813L230.504 23.1851L230.864 22.252ZM226.376 19.328L225.565 18.7428L225.086 19.4061L225.642 20.0069L226.376 19.328ZM229.198 15.418L229.956 14.7658L229.129 13.8047L228.387 14.8328L229.198 15.418ZM232.598 17.866L232.18 18.7745L232.192 18.7798L232.598 17.866ZM240.01 15.554L239.303 16.2611L239.326 16.2847L239.351 16.3066L240.01 15.554ZM238.106 14.704L238.343 13.7325L238.332 13.7299L238.322 13.7276L238.106 14.704ZM233.958 13.786L234.174 12.8096L234.167 12.8082L233.958 13.786ZM230.558 12.63L230.102 13.5203L230.111 13.5244L230.558 12.63ZM228.246 10.658L227.417 11.2179L227.425 11.2284L228.246 10.658ZM228.552 3.79L229.368 4.36804L229.373 4.36008L228.552 3.79ZM231.884 1.172L231.483 0.255842L231.483 0.255842L231.884 1.172ZM237.086 1.22C239.067 1.22 240.769 1.53232 242.211 2.12985L242.977 0.282143C241.246 -0.434988 239.275 -0.780001 237.086 -0.780001V1.22ZM242.227 2.13627C243.701 2.71765 244.972 3.57572 246.049 4.71501L247.503 3.34099C246.222 1.98694 244.705 0.96368 242.961 0.275726L242.227 2.13627ZM245.975 3.42915L243.153 7.20315L244.755 8.40084L247.577 4.62684L245.975 3.42915ZM244.677 7.11114C243.624 6.00916 242.464 5.16725 241.195 4.60868L240.389 6.43932C241.386 6.87809 242.335 7.55484 243.231 8.49286L244.677 7.11114ZM241.217 4.61876C239.953 4.02559 238.535 3.742 236.984 3.742V5.742C238.289 5.742 239.409 5.97974 240.367 6.42924L241.217 4.61876ZM236.984 3.742C235.678 3.742 234.509 3.94597 233.698 4.554L234.898 6.154C235.175 5.94603 235.796 5.742 236.984 5.742V3.742ZM233.698 4.554C232.946 5.11779 232.482 5.8946 232.482 6.85H234.482C234.482 6.62673 234.562 6.40621 234.898 6.154L233.698 4.554ZM232.482 6.85C232.482 7.68115 232.879 8.36191 233.508 8.85888L234.748 7.28912C234.516 7.10609 234.482 6.97085 234.482 6.85H232.482ZM233.554 8.89323C234.169 9.32349 235.047 9.62994 236.082 9.86513L236.526 7.91487C235.566 7.69673 234.993 7.45918 234.701 7.25477L233.554 8.89323ZM236.084 9.86556L239.858 10.7156L240.298 8.76444L236.524 7.91444L236.084 9.86556ZM239.852 10.7141C242.015 11.2167 243.459 11.9205 244.317 12.7406L245.699 11.2954C244.471 10.1209 242.629 9.30595 240.304 8.76594L239.852 10.7141ZM244.317 12.7406C245.133 13.5211 245.572 14.5705 245.572 15.996H247.572C247.572 14.1122 246.969 12.5096 245.699 11.2954L244.317 12.7406ZM245.572 15.996C245.572 17.4031 245.213 18.5361 244.542 19.4499L246.154 20.6341C247.114 19.3266 247.572 17.7622 247.572 15.996H245.572ZM244.548 19.442C243.856 20.3641 242.892 21.0868 241.613 21.5945L242.351 23.4535C243.927 22.8279 245.207 21.8959 246.148 20.642L244.548 19.442ZM241.626 21.5895C240.332 22.0824 238.824 22.34 237.086 22.34V24.34C239.02 24.34 240.776 24.0536 242.338 23.4585L241.626 21.5895ZM237.086 22.34C234.927 22.34 232.977 21.9949 231.224 21.3189L230.504 23.1851C232.514 23.9598 234.711 24.34 237.086 24.34V22.34ZM231.233 21.3228C229.459 20.6171 228.098 19.7179 227.11 18.6491L225.642 20.0069C226.875 21.3407 228.507 22.3909 230.494 23.1812L231.233 21.3228ZM227.187 19.9132L230.009 16.0032L228.387 14.8328L225.565 18.7428L227.187 19.9132ZM228.44 16.0702C229.391 17.1751 230.65 18.0701 232.18 18.7744L233.016 16.9576C231.69 16.3472 230.683 15.6102 229.956 14.7658L228.44 16.0702ZM232.192 18.7798C233.744 19.4696 235.355 19.818 237.018 19.818V17.818C235.643 17.818 234.308 17.5317 233.004 16.9522L232.192 18.7798ZM237.018 19.818C238.262 19.818 239.359 19.6414 240.176 19.1621C241.076 18.6343 241.554 17.7849 241.554 16.744H239.554C239.554 17.0857 239.443 17.2734 239.164 17.4369C238.803 17.6489 238.132 17.818 237.018 17.818V19.818ZM241.554 16.744C241.554 15.9756 241.245 15.3059 240.668 14.8014L239.351 16.3066C239.5 16.4367 239.554 16.5604 239.554 16.744H241.554ZM240.717 14.8469C240.172 14.3019 239.305 13.9673 238.343 13.7325L237.869 15.6755C238.765 15.8941 239.168 16.1261 239.303 16.2611L240.717 14.8469ZM238.322 13.7276L234.174 12.8096L233.742 14.7624L237.89 15.6804L238.322 13.7276ZM234.167 12.8082C232.967 12.551 231.916 12.191 231.005 11.7356L230.111 13.5244C231.195 14.0664 232.41 14.477 233.748 14.7638L234.167 12.8082ZM231.013 11.7398C230.17 11.3082 229.531 10.7551 229.067 10.0876L227.425 11.2284C228.094 12.1929 228.997 12.9545 230.102 13.5202L231.013 11.7398ZM229.074 10.0981C228.643 9.45962 228.396 8.62372 228.396 7.53H226.396C226.396 8.92961 226.715 10.1791 227.417 11.2179L229.074 10.0981ZM228.396 7.53C228.396 6.31987 228.724 5.27761 229.368 4.36802L227.736 3.21198C226.839 4.47839 226.396 5.92946 226.396 7.53H228.396ZM229.373 4.36008C230.022 3.42591 230.974 2.66152 232.285 2.08816L231.483 0.255842C229.892 0.951809 228.623 1.93275 227.73 3.21992L229.373 4.36008ZM232.285 2.08816C233.579 1.52172 235.17 1.22 237.086 1.22V-0.780001C234.967 -0.780001 233.09 -0.447051 231.483 0.255842L232.285 2.08816Z" fill="black" fill-opacity="0.2"/>
</svg>
